<?xml version="1.0" standalone="no"?>
<!DOCTYPE svg PUBLIC "-//W3C//DTD SVG 20010904//EN"
 "http://www.w3.org/TR/2001/REC-SVG-20010904/DTD/svg10.dtd">
<svg version="1.0" xmlns="http://www.w3.org/2000/svg"
 width="670.000000pt" height="500.000000pt" viewBox="0 0 670.000000 500.000000"
 preserveAspectRatio="xMidYMid meet">
<metadata>
Created by potrace 1.15, written by Peter Selinger 2001-2017
</metadata>
<g transform="translate(0.000000,500.000000) scale(0.100000,-0.100000)"
fill="#000000" stroke="none">
<path d="M2670 3956 c-69 -155 -1 -694 150 -1185 46 -148 119 -334 161 -410
17 -29 29 -54 27 -55 -38 -24 -114 -98 -143 -141 l-38 -55 -221 0 -221 0 -1
32 c-1 23 -12 41 -41 69 -71 66 -196 73 -280 16 -36 -24 -68 -80 -59 -103 5
-12 -58 -14 -444 -14 l-450 0 0 -35 0 -35 473 0 c431 0 477 -2 508 -17 23 -12
57 -18 104 -18 47 0 81 6 104 18 32 16 134 17 1658 17 l1623 0 0 35 0 35 -898
0 -897 0 -45 61 c-24 33 -62 74 -84 91 -23 18 -45 35 -49 38 -5 4 10 43 32 86
190 379 365 1176 323 1475 -16 108 -33 139 -76 139 -45 0 -89 -51 -155 -179
-160 -315 -305 -894 -328 -1312 l-6 -118 -96 -3 -97 -3 4 28 c7 47 -18 301
-44 457 -55 327 -168 709 -274 927 -69 142 -120 203 -169 203 -28 0 -34 -5
-51 -44z"/>
<path d="M1849 1713 l-59 -56 0 -189 0 -190 54 -56 55 -57 110 -3 110 -4 45
42 45 42 6 -29 c12 -51 13 -53 56 -53 l41 0 -6 38 c-4 20 -9 99 -12 175 l-6
137 -124 0 -124 0 0 -45 0 -45 80 0 80 0 0 -33 c0 -26 -10 -43 -53 -85 l-53
-52 -75 0 c-72 0 -76 1 -107 33 l-32 33 0 156 0 156 31 26 c28 24 38 26 127
26 l96 0 43 -42 43 -42 33 32 32 33 -57 54 -56 55 -132 0 -131 0 -60 -57z"/>
<path d="M2443 1567 l-36 -33 28 -28 27 -27 22 20 c19 18 35 21 100 21 88 0
116 -11 116 -44 0 -24 -2 -24 -114 -28 l-115 -3 -35 -34 c-34 -33 -36 -38 -36
-102 0 -57 4 -72 25 -97 37 -44 73 -55 169 -51 71 3 88 8 109 27 l24 22 18
-20 c23 -25 24 -25 59 6 l29 25 -22 15 c-20 14 -21 24 -21 146 l0 131 -44 43
-43 44 -112 0 -111 0 -37 -33z m257 -236 c0 -58 -36 -81 -127 -81 -77 0 -93 9
-93 54 0 55 22 66 127 66 l93 0 0 -39z"/>
<path d="M2864 1585 c3 -9 35 -108 72 -221 l66 -205 56 3 56 3 68 210 c37 116
68 213 68 218 0 4 -20 7 -43 7 -43 0 -44 -1 -56 -42 -7 -24 -31 -101 -53 -172
l-41 -128 -52 168 -53 169 -47 3 c-40 3 -47 1 -41 -13z"/>
<path d="M3343 1567 l-36 -33 28 -28 27 -27 22 20 c19 18 35 21 100 21 88 0
116 -11 116 -44 0 -24 -2 -24 -114 -28 l-115 -3 -35 -34 c-34 -33 -36 -38 -36
-102 0 -57 4 -72 25 -97 37 -44 73 -55 169 -51 71 3 88 8 108 26 l24 23 22
-22 22 -22 30 29 c29 28 29 29 10 42 -18 13 -20 26 -20 145 l0 131 -44 43 -43
44 -112 0 -111 0 -37 -33z m257 -236 c0 -60 -33 -81 -124 -81 -80 0 -96 9 -96
54 0 55 22 66 127 66 l93 0 0 -39z"/>
<path d="M3842 1557 l-42 -43 0 -136 0 -135 46 -43 46 -42 78 4 c67 3 82 7
105 28 l26 24 -3 -64 -3 -65 -96 -3 c-85 -2 -97 -1 -114 18 -23 26 -30 25 -62
-4 l-25 -24 38 -36 39 -35 121 -1 122 0 36 40 36 40 0 214 c0 117 3 234 6 260
l7 46 -41 0 c-37 0 -41 -3 -47 -30 l-7 -31 -34 31 c-32 28 -40 30 -112 30
l-78 0 -42 -43z m220 -74 c36 -35 38 -40 38 -99 0 -57 -3 -66 -34 -99 -34 -35
-35 -36 -103 -33 l-68 3 -3 119 c-2 78 1 123 9 132 7 9 32 14 67 14 51 0 60
-3 94 -37z"/>
<path d="M4333 1567 l-36 -33 28 -28 27 -27 22 20 c19 18 35 21 103 21 86 0
113 -12 113 -50 0 -16 -11 -19 -115 -22 l-115 -3 -36 -37 c-63 -62 -58 -153
11 -218 25 -23 34 -25 130 -25 93 0 106 2 127 22 l24 23 22 -22 22 -22 27 26
27 27 -22 24 c-20 22 -22 33 -22 154 l0 131 -40 36 -40 36 -110 0 -110 0 -37
-33z m257 -230 c0 -23 -8 -41 -28 -60 -25 -24 -36 -27 -98 -27 -80 0 -94 9
-94 60 0 54 12 60 122 60 l98 0 0 -33z"/>
<path d="M4740 1560 l0 -40 45 0 45 0 0 -180 0 -180 45 0 45 0 0 220 0 220
-90 0 -90 0 0 -40z"/>
</g>
</svg>
